<!DOCTYPE svg PUBLIC "-//W3C//DTD SVG 1.1//EN" "http://www.w3.org/Graphics/SVG/1.1/DTD/svg11.dtd">
<!-- Uploaded to: SVG Repo, www.svgrepo.com, Transformed by: SVG Repo Mixer Tools -->
<svg version="1.1" id="Uploaded to svgrepo.com" xmlns="http://www.w3.org/2000/svg" xmlns:xlink="http://www.w3.org/1999/xlink" width="800px" height="800px" viewBox="0 0 32 32" xml:space="preserve" fill="#000000">
<g id="SVGRepo_bgCarrier" stroke-width="0"/>
<g id="SVGRepo_tracerCarrier" stroke-linecap="round" stroke-linejoin="round"/>
<g id="SVGRepo_iconCarrier"> <style type="text/css"> .blueprint_een{fill:#000000;} .st0{fill:#000000;} </style> <path class="blueprint_een" d="M13,22h9v1h-9V22z M13,20h9v-1h-9V20z M13,17h9v-1h-9V17z M13,11h9v-1h-9V11z M13,14h9v-1h-9V14z M27,4v24c0,2.206-1.794,4-4,4H7c-2.206,0-4-1.794-4-4v-3c0-0.552,0.448-1,1-1h4V8H4C3.448,8,3,7.552,3,7V4c0-2.206,1.794-4,4-4h16 C25.206,0,27,1.794,27,4z M25,28V4c0-1.105-0.895-2-2-2H9.221C9.7,2.532,10,3.228,10,4v24c0,0.772-0.3,1.468-0.779,2H23 C24.105,30,25,29.105,25,28z M5,4v2h4V4c0-1.103-0.897-2-2-2S5,2.897,5,4z M5,26v2c0,1.103,0.897,2,2,2s2-0.897,2-2v-2H5z"/> </g>
</svg>